<svg viewBox="1.936 4.332 16.21 11.943" id="cui-carfront"><title>Rectangle 48</title><path d="M18.146 7.363c0-.178-.002-.202-.05-.37l-.035-.123c-.065-.25-.263-.4-.52-.4-.063 0-.116.01-.112.01-.05.003-.097.007-.143.012-.528.054-.823.22-.998.32l-.118.062-.107-.025c-.04-.07-.096-.18-.165-.31-.87-1.64-1.185-1.857-1.526-1.97-.082-.025-.2-.046-.315-.06-.756-.117-2.078-.18-3.724-.18h-.566c-1.65 0-2.963.063-3.686.177-.162.018-.276.04-.41.075-.287.1-.615.325-1.485 1.973l-.034.066c-.05.096-.092.177-.12.26l-.113-.01-.106-.06c-.196-.107-.523-.29-1.07-.304L2.62 6.5c-.206 0-.684.086-.684.877 0 .937.92.958 1.322.967.04 0 .08 0 .12.003-.016.045-.06.12-.164.247-.3.364-.468.702-.584 1.168-.29 1.17-.198 3.94-.004 5.41.12.916.76 1.096 1.828 1.096.828-.004 1.324-.094 1.575-.55.12-.223.195-.575.233-.812h7.554c.036.228.11.574.224.793.2.38.69.572 1.453.572.073 0 .297-.004.298-.01.94-.02 1.54-.207 1.66-1.096.194-1.48.286-4.254-.003-5.41-.112-.458-.29-.816-.575-1.16-.055-.067-.137-.17-.17-.254l.13-.003c.394-.008 1.31-.03 1.31-.98zM6.22 5.94c.193-.105 1.6-.217 3.824-.22 2.224.003 3.628.115 3.804.205.24.234.896 1.52.934 2.07-.006.095-.037.112-.037.114l-4.7.002L6.86 8.11l-1.528.003s-.02-.027-.026-.09c.036-.576.69-1.862.914-2.084zm-.586 5.67c-.047 0-.095-.003-.19-.01-.035-.003-.063-.008-.094-.014-.2-.042-.454-.142-.682-.264-.362-.195-.582-.41-.636-.62l-.007-.026.006-.028c.046-.197.46-.268.805-.268.053 0 .105 0 .166.004.116.002.29.008.44.04 1.2.19 1.456.412 1.456.563 0 .26-.635.622-1.26.622zm7.173 1.757c0 .064-.105.12-.147.12H7.424c-.042 0-.18-.056-.18-.12v-.354c0-.066.138-.12.18-.12h5.234c.042 0 .146.054.146.12v.354h.003zm3.243-2.61c-.056.173-.292.386-.63.567-.23.123-.482.222-.686.264-.023.006-.05.01-.11.014-.076.008-.126.01-.176.01-.606 0-1.255-.364-1.255-.622 0-.218.51-.414 1.47-.567.132-.027.304-.033.44-.036.048-.002.102-.004.153-.004.482 0 .782.122.8.326l.003.02-.01.023z"></path></svg>