<?xml version="1.0" encoding="iso-8859-1"?>
<!-- Generator: Adobe Illustrator 19.0.0, SVG Export Plug-In . SVG Version: 6.00 Build 0)  -->
<svg version="1.1" id="Capa_1" xmlns="http://www.w3.org/2000/svg" xmlns:xlink="http://www.w3.org/1999/xlink" x="0px" y="0px"
	 viewBox="0 0 512 512" style="enable-background:new 0 0 512 512;" xml:space="preserve">
<g>
	<g>
		<rect x="117.333" y="64" width="106.667" height="21.333"/>
	</g>
</g>
<g>
	<g>
		<rect x="117.333" y="106.667" width="21.333" height="21.333"/>
	</g>
</g>
<g>
	<g>
		<rect x="160" y="106.667" width="21.333" height="21.333"/>
	</g>
</g>
<g>
	<g>
		<path d="M455.541,88.459L370.208,3.125c-2-2-4.713-3.125-7.541-3.125H85.333c-17.673,0-32,14.327-32,32v448
			c0,17.673,14.327,32,32,32h341.333c17.673,0,32-14.327,32-32V96C458.666,93.171,457.542,90.459,455.541,88.459z M437.333,480
			c0,5.891-4.776,10.667-10.667,10.667H85.333c-5.891,0-10.667-4.776-10.667-10.667V32c0-5.891,4.776-10.667,10.667-10.667
			l272.917,0l79.083,79.083V480z"/>
	</g>
</g>
<g>
	<g>
		<path d="M384,85.333c-5.891,0-10.667-4.776-10.667-10.667v-64H352v64c0,17.673,14.327,32,32,32h21.333V85.333H384z"/>
	</g>
</g>
<g>
	<g>
		<rect x="245.333" y="362.667" width="21.333" height="85.333"/>
	</g>
</g>
<g>
	<g>
		<path d="M309.333,282.933v-48.267H320c5.891,0,10.667-4.776,10.667-10.667v-42.667c0-5.891-4.776-10.667-10.667-10.667H192
			c-5.891,0-10.667,4.776-10.667,10.667V224c0,5.891,4.776,10.667,10.667,10.667h10.667v48.267
			c-26.589,17.836-42.578,47.717-42.667,79.733c0,5.891,4.776,10.667,10.667,10.667h170.667c5.891,0,10.667-4.776,10.667-10.667
			C351.912,330.65,335.922,300.769,309.333,282.933z M182.112,352c3.338-22.605,16.794-42.457,36.555-53.931
			c3.297-1.903,5.329-5.42,5.333-9.227V224c0-5.891-4.776-10.667-10.667-10.667h-10.667V192h106.667v21.333h-10.667
			c-5.891,0-10.667,4.776-10.667,10.667v64.843c0.004,3.807,2.036,7.323,5.333,9.227c19.76,11.474,33.216,31.326,36.555,53.931
			H182.112z"/>
	</g>
</g>
<g>
	<g>
		<rect x="213.333" y="213.333" width="53.333" height="21.333"/>
	</g>
</g>
<g>
</g>
<g>
</g>
<g>
</g>
<g>
</g>
<g>
</g>
<g>
</g>
<g>
</g>
<g>
</g>
<g>
</g>
<g>
</g>
<g>
</g>
<g>
</g>
<g>
</g>
<g>
</g>
<g>
</g>
</svg>
