<?xml version="1.0"?>
<svg xmlns="http://www.w3.org/2000/svg" id="Outline" viewBox="0 0 512 512" width="512" height="512"><path d="M288,376a39.931,39.931,0,0,1,10.183-26.665,8,8,0,1,0-11.922-10.67,56,56,0,0,0,83.478,74.67,8,8,0,0,0-11.922-10.67A40,40,0,0,1,288,376Z"/><path d="M36.169,415.023C39.835,417.023,126.983,464,216,464a336.015,336.015,0,0,0,74-8.638,87.866,87.866,0,0,0,95.711-12.979L440.2,490.061A24,24,0,1,0,471.8,453.938l-59.649-52.193a87.96,87.96,0,0,0-32.823-97.179c-14.9-33.842-37.513-62.072-65.526-81.712a169.752,169.752,0,0,0-54.364-25.26,96,96,0,1,0-86.914-.015c-33.16,8.7-63.155,27.408-87.009,54.772C51.007,291.941,32,347.218,32,408A8,8,0,0,0,36.169,415.023Zm425.1,50.956a8,8,0,0,1-10.536,12.042l-53.945-47.2a88.334,88.334,0,0,0,8.883-13.488ZM400,376a72,72,0,1,1-72-72A72.081,72.081,0,0,1,400,376ZM136,112a80,80,0,1,1,80,80A80.091,80.091,0,0,1,136,112ZM97.58,262.865C128.422,227.485,170.478,208,216,208a153.616,153.616,0,0,1,88.621,27.955c20.306,14.236,37.53,33.488,50.644,56.374a87.97,87.97,0,0,0-84.343,150.592A310.979,310.979,0,0,1,216,448c-74.188,0-149.593-35.583-167.958-44.844C49.013,348.163,66.517,298.5,97.58,262.865Z"/></svg>
