<svg id="Layer_1" enable-background="new 0 0 479.918 479.918" height="512" viewBox="0 0 479.918 479.918" width="512" xmlns="http://www.w3.org/2000/svg"><path d="m372.959 400.918v-265.203c0-4.575-1.963-8.938-5.386-11.972l-117-103.724c-6.05-5.363-15.176-5.364-21.228 0l-49.823 44.169c8.618 10.586 20.002 18.935 33.248 23.854 5.274-9.601 15.483-16.124 27.189-16.124 17.093 0 31 13.907 31 31 0 4.418-3.582 8-8 8s-8-3.582-8-8c0-8.271-6.729-15-15-15s-15 6.729-15 15 6.729 15 15 15c4.418 0 8 3.582 8 8s-3.582 8-8 8c-16.84 0-30.577-13.5-30.981-30.244-16.506-5.754-30.715-15.883-41.437-28.865l-55.196 48.933c-3.423 3.034-5.386 7.398-5.386 11.973v312.203c0 8.822 7.178 16 16 16h234c8.822 0 16-7.178 16-16 0-4.418 3.582-8 8-8s8 3.582 8 8c0 17.645-14.355 32-32 32h-234c-17.645 0-32-14.355-32-32v-312.203c0-9.149 3.926-17.877 10.772-23.945l56.652-50.224c-7.938-13.874-12.425-29.848-12.425-46.628 0-4.418 3.582-8 8-8s8 3.582 8 8c0 12.749 3.124 24.937 8.704 35.742l48.068-42.614c12.103-10.729 30.354-10.729 42.456 0l117 103.724c6.846 6.068 10.772 14.796 10.772 23.945v265.203c0 4.418-3.582 8-8 8s-7.999-3.581-7.999-8zm-80-183c22.056 0 40 17.944 40 40v106c0 22.056-17.944 40-40 40h-106c-22.056 0-40-17.944-40-40v-106c0-22.056 17.944-40 40-40zm0 16h-106c-13.233 0-24 10.767-24 24v106c0 13.233 10.767 24 24 24h106c13.233 0 24-10.767 24-24v-106c0-13.233-10.766-24-24-24z"/></svg>