<svg height="512pt" viewBox="-31 0 512 512" width="512pt" xmlns="http://www.w3.org/2000/svg"><path d="m420 512v-60h30v-150h-33.242188l-30-122h-34.480468c4.996094-14.082031 7.722656-29.226562 7.722656-45 0-74.4375-60.5625-135-135-135s-135 60.5625-135 135c0 15.773438 2.726562 30.917969 7.722656 45h-34.480468l-30 122h-33.242188v150h30v60h120v-60h150v60zm-30-30h-60v-30h60zm-60-347c0 52.804688-39.183594 96.621094-90 103.925781v-31.503906c17.460938-6.195313 30-22.867187 30-42.421875 0-24.8125-20.1875-45-45-45-8.269531 0-15-6.730469-15-15s6.730469-15 15-15 15 6.730469 15 15h30c0-19.554688-12.539062-36.226562-30-42.421875v-31.503906c50.816406 7.304687 90 51.121093 90 103.925781zm-120-103.925781v31.503906c-17.460938 6.195313-30 22.867187-30 42.421875 0 24.8125 20.1875 45 45 45 8.269531 0 15 6.730469 15 15s-6.730469 15-15 15-15-6.730469-15-15h-30c0 19.554688 12.539062 36.226562 30 42.421875v31.503906c-50.816406-7.304687-90-51.121093-90-103.925781s39.183594-96.621094 90-103.925781zm-97.195312 178.925781c24.25 36.152344 65.488281 60 112.195312 60s87.945312-23.847656 112.195312-60h26.046876l22.621093 92h-321.726562l22.621093-92zm-82.804688 122h390v90h-120v-60h-150v60h-120zm240 90h-90v-30h90zm-150 60h-60v-30h60zm0 0"/><path d="m90 347c-16.542969 0-30 13.457031-30 30s13.457031 30 30 30 30-13.457031 30-30-13.457031-30-30-30zm0 0"/><path d="m360 407c16.542969 0 30-13.457031 30-30s-13.457031-30-30-30-30 13.457031-30 30 13.457031 30 30 30zm0 0"/></svg>