<svg id="icons" enable-background="new 0 0 64 64" height="512" viewBox="0 0 64 64" width="512" xmlns="http://www.w3.org/2000/svg"><g><g><g><path d="m43.995 50.988h-23.99c-2.757 0-5-2.243-5-5v-28.974c0-.553.447-1 1-1s1 .447 1 1v28.975c0 1.654 1.346 3 3 3h23.99c1.654 0 3-1.346 3-3v-25.973c0-.553.447-1 1-1s1 .447 1 1v25.973c0 2.756-2.243 4.999-5 4.999z"/></g><g><path d="m24.005 21.014c-.553 0-1-.447-1-1 0-3.859 3.141-7 7-7 .553 0 1 .447 1 1s-.447 1-1 1c-2.757 0-5 2.243-5 5 0 .552-.447 1-1 1z"/></g><g><path d="m28.005 21.014c-.553 0-1-.447-1-1 0-1.654 1.346-3 3-3 .553 0 1 .447 1 1s-.447 1-1 1c-.552 0-1 .448-1 1s-.447 1-1 1z"/></g><g><path d="m41.993 15.014h-11.988c-.553 0-1-.447-1-1s.447-1 1-1h11.988c.553 0 1 .447 1 1s-.447 1-1 1z"/></g><g><path d="m47.995 21.016c-.553 0-1-.447-1-1 0-2.758-2.244-5.002-5.002-5.002-.553 0-1-.447-1-1s.447-1 1-1c3.861 0 7.002 3.141 7.002 7.002 0 .552-.447 1-1 1z"/></g><g><path d="m43.993 21.016c-.553 0-1-.447-1-1 0-.552-.448-1-1-1-.553 0-1-.447-1-1s.447-1 1-1c1.654 0 3 1.346 3 3 0 .552-.447 1-1 1z"/></g><g><path d="m41.993 19.014h-11.988c-.553 0-1-.447-1-1s.447-1 1-1h11.988c.553 0 1 .447 1 1s-.447 1-1 1z"/></g><g><path d="m43.993 25.015c-.553 0-1-.447-1-1v-3.999c0-.553.447-1 1-1s1 .447 1 1v3.999c0 .552-.447 1-1 1z"/></g><g><path d="m43.993 25.015h-15.988c-.553 0-1-.447-1-1s.447-1 1-1h15.988c.553 0 1 .447 1 1s-.447 1-1 1z"/></g><g><path d="m28.005 25.015c-.553 0-1-.447-1-1v-4.001c0-.553.447-1 1-1s1 .447 1 1v4.001c0 .552-.447 1-1 1z"/></g><g><path d="m24.005 25.019c-.553 0-1-.447-1-1v-7.005c0-.553.447-1 1-1s1 .447 1 1v7.005c0 .552-.447 1-1 1z"/></g><g><path d="m24.003 18.016h-7.996c-.553 0-1-.447-1-1v-3.002c0-.553.447-1 1-1h7.996c.553 0 1 .447 1 1v3.002c0 .552-.447 1-1 1zm-6.996-2h5.996v-1.002h-5.996z"/></g></g><g><path d="m10.08 54.92c-.256 0-.512-.098-.707-.293-6.045-6.044-9.373-14.08-9.373-22.627s3.329-16.583 9.373-22.627c11.157-11.159 28.53-12.568 41.314-3.357.448.323.549.948.227 1.396-.323.446-.949.548-1.396.227-11.981-8.638-28.27-7.312-38.729 3.148-5.668 5.667-8.789 13.2-8.789 21.213s3.12 15.547 8.787 21.213c.391.391.391 1.023 0 1.414-.195.195-.451.293-.707.293z"/></g><g><path d="m32.004 64.049c-6.506.001-13.045-1.996-18.69-6.064-.448-.323-.549-.948-.227-1.396.321-.447.948-.549 1.396-.227 11.983 8.638 28.271 7.313 38.73-3.149 11.696-11.697 11.696-30.729 0-42.426-.391-.391-.391-1.023 0-1.414s1.023-.391 1.414 0c12.477 12.477 12.477 32.777 0 45.254-6.23 6.23-14.398 9.422-22.623 9.422z"/></g><g><path d="m32.002 44.001c-3.309 0-6-2.691-6-6 0-3.135 4.806-7.3 5.354-7.765.373-.316.92-.316 1.293 0 .548.465 5.354 4.63 5.354 7.765-.001 3.309-2.692 6-6.001 6zm0-11.665c-1.76 1.625-4 4.184-4 5.665 0 2.206 1.794 4 4 4s4-1.794 4-4c0-1.481-2.24-4.04-4-5.665z"/></g><g><g><path d="m56.392 11.431c-.047 0-.095-.003-.143-.01l-2.475-.354c-.547-.078-.927-.585-.849-1.132s.58-.925 1.132-.849l2.475.354c.547.078.927.585.849 1.132-.071.499-.499.859-.989.859z"/></g><g><path d="m53.563 13.552c-.047 0-.095-.003-.143-.01-.547-.078-.927-.585-.849-1.132l.354-2.475c.078-.547.58-.925 1.132-.849.547.078.927.585.849 1.132l-.354 2.475c-.071.499-.498.859-.989.859z"/></g><g><path d="m10.081 54.92c-.047 0-.095-.003-.143-.01l-2.475-.354c-.547-.078-.927-.585-.849-1.132s.588-.925 1.132-.849l2.475.354c.547.078.927.585.849 1.132-.071.5-.499.859-.989.859z"/></g><g><path d="m10.081 54.92c-.047 0-.095-.003-.143-.01-.547-.078-.927-.585-.849-1.132l.354-2.475c.078-.547.591-.924 1.132-.849.547.078.927.585.849 1.132l-.354 2.475c-.071.5-.499.859-.989.859z"/></g></g></g></svg>