<?xml version="1.0" encoding="iso-8859-1"?>
<!-- Generator: Adobe Illustrator 19.0.0, SVG Export Plug-In . SVG Version: 6.00 Build 0)  -->
<svg version="1.1" id="Capa_1" xmlns="http://www.w3.org/2000/svg" xmlns:xlink="http://www.w3.org/1999/xlink" x="0px" y="0px"
	 viewBox="0 0 512 512" style="enable-background:new 0 0 512 512;" xml:space="preserve">
<g>
	<g>
		<path d="M503.706,151.583c-26.333-13.167-49.714-24.352-82.587-35.097c0.578-3.746,0.88-7.582,0.88-11.486
			c0-17.536-10.92-39.424-33.385-66.916c-15.427-18.88-30.656-33.363-31.297-33.97c-5.787-5.483-14.85-5.483-20.637,0
			c-0.641,0.607-15.87,15.089-31.297,33.97c-16.65,20.376-26.951,37.672-31.172,52.401c-91.557-3.181-176.434,16.358-265.917,61.099
			c-7.41,3.705-10.413,12.715-6.708,20.125l101.107,202.215c3.315,6.63,10.976,9.848,18.038,7.563
			c22.336-7.232,45.075-12.628,68.046-16.184l34.85,69.479c-8.397,8.18-13.627,19.596-13.627,32.216c0,24.813,20.187,45,45,45
			s45-20.187,45-45c0-26.223-22.541-47.228-49.125-44.803l-30.406-60.62c11.479-0.919,22.996-1.386,34.531-1.386
			c46.299,0,93.423,7.35,136.279,21.256c7.06,2.292,14.729-0.923,18.046-7.56l101.089-202.177
			C514.117,164.303,511.116,155.288,503.706,151.583z M255.001,451.997c8.271,0,15,6.729,15,15c0,8.271-6.729,15-15,15
			s-15-6.729-15-15C240.001,458.726,246.73,451.997,255.001,451.997z M347.006,36.187c21.249,22.202,44.994,53.041,44.994,68.813
			c0,24.813-20.187,45-45,45s-45-20.187-45-45C302,89.267,325.755,58.41,347.006,36.187z M388.178,349.1
			c-42.419-12.395-88.18-18.912-133.178-18.912c-16.375,0-32.714,0.875-48.966,2.606l-76.409-152.338
			c-3.713-7.405-12.727-10.396-20.133-6.683c-7.405,3.714-10.397,12.728-6.683,20.133l71.886,143.32
			c-17.107,3.013-34.082,6.974-50.856,11.905L35.201,171.854c80.01-37.821,156.447-54.275,238.415-51.374
			C280.769,154.431,310.95,180,347,180c26.815,0,50.375-14.154,63.635-35.375c25.983,8.435,45.837,17.217,66.21,27.141
			L388.178,349.1z"/>
	</g>
</g>
<g>
</g>
<g>
</g>
<g>
</g>
<g>
</g>
<g>
</g>
<g>
</g>
<g>
</g>
<g>
</g>
<g>
</g>
<g>
</g>
<g>
</g>
<g>
</g>
<g>
</g>
<g>
</g>
<g>
</g>
</svg>
